# xmcd CD database file
#
# Track frame offsets:
#	150
#	13666
#	39670
#	64614
#	83754
#	113873
#	132284
#	151317
#	167362
#	205891
#	239219
#	273510
#	293873
#
# Disc length: 4305 seconds
#
# Revision: 0
# Processed by: cddbd v1.5PL3 Copyright (c) Steve Scherf et al.
# Submitted via: CDex 1.50beta8
#
DISCID=b510cf0d
DTITLE=British Rock '70-'75 - British Rock '70-'75
DYEAR=2003
DGENRE=Rock
TTITLE0=Queen-Killer Queen
TTITLE1=Rod Stewart-Maggie May
TTITLE2=Free-All Right Now
TTITLE3=Bad Company-Can't Get Enough
TTITLE4=Deep Purple-Highway Star (Live)
TTITLE5=Dave Mason-All Along The Watchtower
TTITLE6=David Bowie-Starman
TTITLE7=Mott The Hoople-All The Young Dudes
TTITLE8=The Who-Won't Get Fooled Again
TTITLE9=The Moody Blues-Nights In White Satin
TTITLE10=Ten Years After-Love Like A Man
TTITLE11=Slade-Cum On Feel The Noize
TTITLE12=UFO-Rock Bottom
EXTD=YEAR: 2003
EXTT0=
EXTT1=
EXTT2=
EXTT3=
EXTT4=
EXTT5=
EXTT6=
EXTT7=
EXTT8=
EXTT9=
EXTT10=
EXTT11=
EXTT12=
PLAYORDER=
